<?xml version="1.0" encoding="UTF-8"?>
<svg width="128" height="128" viewBox="0 0 128 128" xmlns="http://www.w3.org/2000/svg">
  <rect width="128" height="128" fill="#2b7cd1" rx="10" ry="10"/>
  <g fill="white">
    <path d="M36,72 C29.373,72 24,66.627 24,60 C24,53.373 29.373,48 36,48 C38.314,48 40.480,48.683 42.303,49.867 C44.756,42.259 51.810,36.800 60,36.800 C70.493,36.800 79,45.307 79,55.800 C79,56.116 78.989,56.429 78.969,56.741 C78.980,56.741 78.990,56.741 79,56.741 C85.627,56.741 91,62.114 91,68.741 C91,75.368 85.627,80.741 79,80.741 L36,80.741 C29.373,80.741 24,75.368 24,68.741 C24,62.114 29.373,56.741 36,56.741 C36.010,56.741 36.020,56.741 36.031,56.741 C36.011,56.429 36,56.116 36,55.800 C36,55.366 36.018,54.937 36.054,54.512 C35.450,54.340 34.821,54.247 34.175,54.247 C31.330,54.247 29.029,56.548 29.029,59.393 C29.029,62.238 31.330,64.539 34.175,64.539 L79,64.539 C81.761,64.539 84,62.300 84,59.539 C84,56.778 81.761,54.539 79,54.539 L77.387,54.539 C77.782,53.036 78,51.449 78,49.800 C78,41.559 71.441,35 63.200,35 C56.368,35 50.637,39.432 48.833,45.636 C46.650,43.890 44.011,42.855 41.167,42.855 C36.440,42.855 32.353,45.763 30.632,49.933 C28.433,50.864 26.551,52.375 25.228,54.280 C26.234,53.138 27.539,52.269 29.028,51.798 C30.386,49.123 32.885,47.159 35.880,46.469 C38.448,43.222 42.547,41.200 47,41.200 C47.997,41.200 48.971,41.308 49.912,41.515 C52.613,36.247 58.120,32.800 64.400,32.800 C73.613,32.800 81.054,40.241 81.054,49.453 C81.054,50.028 81.022,50.595 80.961,51.155 C81.971,51.047 83.004,50.991 84.046,50.991 C93.345,50.991 100.878,58.524 100.878,67.823 C100.878,77.122 93.345,84.654 84.046,84.654 L36.048,84.654 C26.749,84.654 19.216,77.122 19.216,67.823 C19.216,59.195 25.715,52.050 34.157,51.116 C34.453,46.424 38.007,42.658 42.625,42.097 C44.441,37.486 48.923,34.200 54.164,34.200 C55.618,34.200 57.015,34.433 58.329,34.868 C61.293,29.454 67.049,25.800 73.672,25.800 C83.926,25.800 92.238,34.111 92.238,44.365 C92.238,45.192 92.187,46.006 92.086,46.806 C100.279,48.328 106.400,55.430 106.400,64.000 C106.400,73.941 98.341,82.000 88.400,82.000 L36.031,82.000 C29.404,82.000 24.031,76.627 24.031,70.000 C24.031,63.373 29.404,58.000 36.031,58.000 L79.000,58.000 C82.866,58.000 86.000,61.134 86.000,65.000 C86.000,68.866 82.866,72.000 79.000,72.000 L36.000,72.000 Z"/>
  </g>
</svg> 